<?xml version="1.0" encoding="UTF-8"?>
<svg t="1767704357383" class="icon" viewBox="0 0 1024 1024" version="1.1" xmlns="http://www.w3.org/2000/svg" p-id="27379"><path d="M168 116h-64a8 8 0 0 1 0-16h64a8 8 0 0 1 0 16z" fill="#263238" p-id="27380"></path><path d="M136 148a8 8 0 0 1-8-8v-64a8 8 0 0 1 16 0v64a8 8 0 0 1-8 8zM72 188h-64a8 8 0 0 1 0-16h64a8 8 0 0 1 0 16z" fill="#263238" p-id="27381"></path><path d="M40 220a8 8 0 0 1-8-8v-64a8 8 0 0 1 16 0v64a8 8 0 0 1-8 8zM920 316h-816a8 8 0 0 1-8-8v-88c0-26.464 21.536-48 48-48h736c26.464 0 48 21.536 48 48v88a8 8 0 0 1-8 8z m-808-16h800v-80c0-17.648-14.352-32-32-32H144c-17.648 0-32 14.352-32 32v80z" fill="#263238" p-id="27382"></path><path d="M160 276c-17.648 0-32-14.352-32-32s14.352-32 32-32 32 14.352 32 32-14.352 32-32 32z m0-48c-8.816 0-16 7.184-16 16s7.184 16 16 16 16-7.184 16-16-7.184-16-16-16zM240 276c-17.648 0-32-14.352-32-32s14.352-32 32-32 32 14.352 32 32-14.352 32-32 32z m0-48c-8.816 0-16 7.184-16 16s7.184 16 16 16 16-7.184 16-16-7.184-16-16-16zM136 956h-32a8 8 0 0 1 0-16h32a8 8 0 0 1 0 16zM488 956h-320a8 8 0 0 1 0-16h320a8 8 0 0 1 0 16zM856 124h-32a8 8 0 0 1 0-16h32a8 8 0 0 1 0 16zM792 124h-320a8 8 0 0 1 0-16h320a8 8 0 0 1 0 16zM736 508H288a8 8 0 0 1 0-16h448a8 8 0 0 1 0 16zM736 572H288a8 8 0 0 1 0-16h448a8 8 0 0 1 0 16zM736 636H288a8 8 0 0 1 0-16h448a8 8 0 0 1 0 16zM528.96 700H288a8 8 0 0 1 0-16h240.96a8 8 0 0 1 0 16z" fill="#263238" p-id="27383"></path><path d="M1004.288 489.792l-11.312-11.312a40.016 40.016 0 0 0-56.576 0L625.28 789.616l67.888 67.888 311.12-311.12a40.032 40.032 0 0 0 0-56.592z" fill="#40C4FF" p-id="27384"></path><path d="M693.152 865.488a8.032 8.032 0 0 1-5.664-2.336l-67.888-67.888a8 8 0 0 1 0-11.312L930.72 472.832c18.144-18.144 49.76-18.144 67.888 0l11.312 11.312c9.088 9.056 14.08 21.12 14.08 33.936s-4.992 24.88-14.064 33.952L698.816 863.152a8.032 8.032 0 0 1-5.664 2.336z m-56.56-75.872l56.576 56.576 305.472-305.472c6.032-6.048 9.36-14.096 9.36-22.64s-3.328-16.576-9.376-22.624l-11.312-11.312c-12.096-12.096-33.168-12.096-45.264 0L636.592 789.616z" fill="#263238" p-id="27385"></path><path d="M534.768 956a8 8 0 0 1-7.6-10.528l33.936-101.824a7.728 7.728 0 0 1 1.936-3.12l56.576-56.576a8 8 0 0 1 11.312 0l67.888 67.888a8 8 0 0 1 0 11.312l-56.576 56.576a8.128 8.128 0 0 1-3.12 1.936l-101.824 33.936a8.096 8.096 0 0 1-2.528 0.4z m40.928-105.504l-28.288 84.848 84.848-28.288 49.584-49.584-56.576-56.576-49.568 49.6z" fill="#263238" p-id="27386"></path><path d="M534.768 956a8 8 0 0 1-7.6-10.528l22.624-67.888a8 8 0 0 1 13.232-3.136l45.264 45.264a7.968 7.968 0 0 1-3.136 13.232l-67.888 22.624a7.008 7.008 0 0 1-2.496 0.432z m26.128-61.072l-13.472 40.416 40.416-13.472-26.944-26.944zM885.488 718.416a8 8 0 0 1-5.664-13.648l113.136-113.136a8 8 0 0 1 11.312 11.312l-113.136 113.136a7.968 7.968 0 0 1-5.648 2.336zM522.368 892H144c-26.464 0-48-21.536-48-48v-536a8 8 0 0 1 8-8h816a8 8 0 0 1 8 8v142.736a8 8 0 0 1-16 0V316H112v528c0 17.648 14.352 32 32 32h378.368a8 8 0 0 1 0 16zM880 892H711.904a8 8 0 0 1 0-16H880c17.648 0 32-14.352 32-32v-122.848a8 8 0 0 1 16 0v122.848c0 26.464-21.536 48-48 48z" fill="#263238" p-id="27387"></path><path d="M288 372h448v64H288z" fill="#FFD740" p-id="27388"></path><path d="M736 444H288a8 8 0 0 1-8-8v-64a8 8 0 0 1 8-8h448a8 8 0 0 1 8 8v64a8 8 0 0 1-8 8z m-440-16h432v-48h-432v48z" fill="#263238" p-id="27389"></path></svg>

