<svg xmlns="http://www.w3.org/2000/svg" viewBox="0 0 1024 1024" width="1024" height="1024">
  <g fill-opacity="0.5">
    <path d="M529.273228 416.833357l51.331111-124.926317 42.017297-8.65826 9.2396 21.732232L555.866454 416.833357h-26.593226z" fill="#AEDAFD"></path>
    <path d="M529.273228 416.833357l51.331111-124.926317 23.810214 18.24419L548.234817 416.833357h-18.961589z" fill="#7CC0F2"></path>
    <path d="M604.414553 310.15123L580.604339 291.90704l42.017297-8.65826 9.2396 21.732232-27.446683 5.170218z" fill="#89CEF4"></path>
    <path d="M496.297628 222.752283L586.937237 154.611779l35.746244 11.997875-1.855342 19.740832-104.158863 47.954389-20.371648-11.552592z" fill="#AEDAFD"></path>
    <path d="M496.297628 222.752283L586.937237 154.611779l10.748611 23.562836-86.854713 52.815384-14.533507-8.237716z" fill="#7CC0F2"></path>
    <path d="M597.685848 178.174615L586.937237 154.611779l35.746244 11.997875-1.855342 19.740832-23.142291-8.175871z" fill="#89CEF4"></path>
    <path d="M523.843262 222.752283L433.203653 154.611779l-35.746244 11.985506 1.842973 19.753201 104.158863 47.954389 20.384017-11.552592z" fill="#7CC0F2"></path>
    <path d="M523.843262 222.752283L433.203653 154.611779l-10.748611 23.550467 86.854713 52.827753 14.533507-8.237716z" fill="#AEDAFD"></path>
    <path d="M422.455042 178.162246l10.748611-23.550467-35.746244 11.985506 1.842973 19.753201 23.15466-8.18824z" fill="#89CEF4"></path>
    <path d="M492.784848 71.999613m14.842731 0l9.895154 0q14.842731 0 14.842731 14.842731l0 329.013867q0 14.842731-14.842731 14.842731l-9.895154 0q-14.842731 0-14.842731-14.842731l0-329.013867q0-14.842731 14.842731-14.842731Z" fill="#B6DFFC"></path>
    <path d="M609.263178 91.530173s-59.977001 22.820699-69.476349 30.303909c-6.951346 5.479441-17.551529 67.682853-27.087984 67.682853-11.614437 0-18.24419-59.890419-25.690293-67.682853-7.01319-7.334783-69.266077-31.478958-69.266077-31.478958s60.075953-20.779823 64.726675-27.421945C489.890516 52.39484 512.686476 0 512.686476 0s23.50099 55.660241 30.922356 62.834227c7.6069 7.421365 65.654346 28.695946 65.654346 28.695946z" fill="#B6DFFC"></path>
    <path d="M603.771368 480.595255l133.856694-18.00918 28.510412 32.060299-14.199546 18.862637-134.870947-9.882785-13.296613-23.030971z" fill="#AEDAFD"></path>
    <path d="M603.771368 480.595255l133.856694-18.00918-3.896217 29.747307-120.473498 4.687829-9.486979-16.425956z" fill="#7CC0F2"></path>
    <path d="M733.731845 492.333382l3.896217-29.747307 28.510412 32.060299-14.199546 18.862637-18.207083-21.175629z" fill="#89CEF4"></path>
    <path d="M755.365125 355.001015l104.332029 44.416872 7.48321 36.958399-18.021549 8.274823-93.608155-66.235686-0.185535-23.414408z" fill="#AEDAFD"></path>
    <path d="M755.365125 355.001015l104.332029 44.416872-15.028265 21.089046-89.167705-48.807846-0.136059-16.698072z" fill="#7CC0F2"></path>
    <path d="M844.668889 420.506933l15.028265-21.089046 7.48321 36.958399-18.021549 8.274823-4.489926-24.144176z" fill="#89CEF4"></path>
    <path d="M769.144127 378.848336l13.68005-112.569745-28.250664-24.960526-16.178577 11.478379 10.550708 114.190076 20.198483 11.861816z" fill="#7CC0F2"></path>
    <path d="M769.144127 378.848336l13.68005-112.569745-25.764507 2.473789-2.325361 101.635599 14.409818 8.460357z" fill="#AEDAFD"></path>
    <path d="M757.05967 268.75238l25.764507-2.473789-28.250664-24.960526-16.178577 11.478379 18.664734 15.955936z" fill="#89CEF4"></path>
    <path d="M884.166464 276.58418m7.421365 12.854182l4.947577 8.569454q7.421365 12.854182-5.432817 20.275548l-284.934366 164.506933q-12.854182 7.421365-20.275548-5.432817l-4.947577-8.569454q-7.421365-12.854182 5.432817-20.275548l284.934367-164.506933q12.854182-7.421365 20.275547 5.432817Z" fill="#B6DFFC"></path>
    <path d="M925.438083 387.246847s-49.69841-40.557762-60.92941-45.047688c-8.212978-3.27777-67.385998 18.639996-72.16041 10.377543-5.813403-10.05595 42.747065-45.765087 45.765087-56.080785 2.844857-9.734358-7.421365-75.722665-7.421366-75.722665s48.040972 41.63386 56.105523 42.351259c12.826593 1.125574 69.612408-5.293907 69.612407-5.293908s-36.476011 48.238875-38.974537 58.13403c-2.548002 10.352805 8.002706 71.282215 8.002706 71.282214z" fill="#B6DFFC"></path>
    <path d="M585.799295 576.998792l82.525583 106.917138-13.506885 40.718558-23.439146-2.869595-58.876165-121.73513 13.296613-23.030971z" fill="#AEDAFD"></path>
    <path d="M585.799295 576.998792l82.525583 106.917138-27.706431 11.503116-64.293762-101.994298 9.47461-16.425956z" fill="#7CC0F2"></path>
    <path d="M640.618447 695.419046l27.706431-11.503116-13.506885 40.718558-23.439146-2.869595 9.2396-26.345847z" fill="#89CEF4"></path>
    <path d="M770.368652 645.485626l13.69242 112.557375-28.250665 24.960526-16.178576-11.478378 10.538339-114.177707 20.198482-11.861816z" fill="#AEDAFD"></path>
    <path d="M770.368652 645.485626l13.69242 112.557375-25.776876-2.473788-2.312992-101.62323 14.397448-8.460357z" fill="#7CC0F2"></path>
    <path d="M758.284196 755.569213l25.776876 2.473788-28.250665 24.960526-16.178576-11.478378 18.652365-15.955936z" fill="#89CEF4"></path>
    <path d="M756.60202 669.332947l104.332028-44.429241 7.483211-36.946031-18.021549-8.274822-93.608156 66.223317-0.185534 23.426777z" fill="#7CC0F2"></path>
    <path d="M756.60202 669.332947l104.332028-44.429241-15.028265-21.076678-89.180074 48.795478-0.123689 16.710441z" fill="#AEDAFD"></path>
    <path d="M845.905783 603.827028l15.028265 21.076678 7.483211-36.946031-18.021549-8.274822-4.489927 24.144175z" fill="#89CEF4"></path>
    <path d="M902.68498 717.824115m-7.421366 12.854182l-4.947577 8.569455q-7.421365 12.854182-20.275547 5.432816l-284.934367-164.506933q-12.854182-7.421365-5.432816-20.275547l4.947577-8.569455q7.421365-12.854182 20.275547-5.432816l284.934367 164.506933q12.854182 7.421365 5.432816 20.275547Z" fill="#B6DFFC"></path>
    <path d="M827.476059 808.92883s10.278591-63.328985 8.54694-75.289752c-1.236894-8.757211-49.834469-49.042856-45.072426-57.292941 5.813403-10.05595 60.991255 14.137701 71.45538 11.589699 9.895154-2.399575 61.844712-44.243707 61.844711-44.243707s-12.034981 62.426052-8.658259 69.773204c5.429966 11.663913 39.395081 57.639271 39.395081 57.639272s-59.98937-7.421365-69.847417-4.675461C874.985167 769.348215 827.476059 808.92883 827.476059 808.92883z" fill="#B6DFFC"></path>
    <path d="M495.80287 607.154274l-51.331111 124.926317-42.017297 8.65826-9.2396-21.719863 75.994782-111.864714h26.593226z" fill="#AEDAFD"></path>
    <path d="M495.80287 607.154274l-51.331111 124.926317-23.810214-18.24419 56.179736-106.682127h18.961589z" fill="#7CC0F2"></path>
    <path d="M420.661545 713.836401l23.810214 18.24419-42.017297 8.65826-9.2396-21.719863 27.446683-5.182587z" fill="#89CEF4"></path>
    <path d="M528.77847 801.247717l-90.62724 68.140504-35.746244-11.997875 1.842973-19.753201 104.158863-47.954389 20.371648 11.564961z" fill="#AEDAFD"></path>
    <path d="M528.77847 801.247717l-90.62724 68.140504-10.748611-23.562836 86.854713-52.827752 14.521138 8.250084z" fill="#7CC0F2"></path>
    <path d="M427.402619 845.825385l10.748611 23.562836-35.746244-11.997875 1.842973-19.753201 23.15466 8.18824z" fill="#89CEF4"></path>
    <path d="M501.245205 801.247717l90.639609 68.140504 35.746244-11.997875-1.855342-19.740832-104.158863-47.966758-20.371648 11.564961z" fill="#7CC0F2"></path>
    <path d="M501.245205 801.247717l90.639609 68.140504 10.748611-23.562836-86.867082-52.815384-14.521138 8.237716z" fill="#AEDAFD"></path>
    <path d="M602.633425 845.825385l-10.748611 23.562836 35.746244-11.997875-1.855342-19.740832-23.142291 8.175871z" fill="#89CEF4"></path>
    <path d="M532.29125 952.000387m-14.842731 0l-9.895154 0q-14.842731 0-14.842731-14.842731l0-329.013867q0-14.842731 14.842731-14.842731l9.895154 0q14.842731 0 14.842731 14.842731l0 329.013867q0-14.842731 14.842731-14.842731Z" fill="#B6DFFC"></path>
    <path d="M415.81292 932.395613s59.977001-22.758854 69.476349-30.242064c6.951346-5.479441 17.551529-67.682853 27.087984-67.682853 11.614437 0 18.24419 59.890419 25.690293 67.682853 7.01319 7.334783 69.266077 31.478958 69.266077 31.478958s-60.125429 20.792192-64.739044 27.434314c-7.421365 10.538339-30.217326 62.933179-30.217326 62.933179s-23.50099-55.660241-30.922356-62.834227c-7.594531-7.433734-65.641977-28.77016-65.641977-28.77016z" fill="#B6DFFC"></path>
    <path d="M422.207663 546.781466l-133.844325 18.00918-28.510412-32.060299 14.199545-18.875006 134.858579 9.895154 13.296613 23.030971z" fill="#AEDAFD"></path>
    <path d="M422.207663 546.781466l-133.844325 18.00918 3.896217-29.747306 120.473498-4.68783 9.47461 16.425956z" fill="#7CC0F2"></path>
    <path d="M292.259555 535.04334l-3.896217 29.747306-28.510412-32.060299 14.199545-18.875006 18.207084 21.187999z" fill="#89CEF4"></path>
    <path d="M270.613905 672.375707l-104.319659-44.429241-7.49558-36.946031 18.033918-8.274823 93.608156 66.223318 0.173165 23.426777z" fill="#AEDAFD"></path>
    <path d="M270.613905 672.375707l-104.319659-44.429241L181.322511 606.869788l89.167705 48.807846 0.123689 16.698073z" fill="#7CC0F2"></path>
    <path d="M181.322511 606.869788l-15.028265 21.076678-7.49558-36.946031 18.033918-8.274823L181.322511 606.869788z" fill="#89CEF4"></path>
    <path d="M256.847273 648.528386l-13.69242 112.557375 28.263034 24.960526 16.178576-11.46601-10.550708-114.190076-20.198482-11.861815z" fill="#7CC0F2"></path>
    <path d="M256.847273 648.528386l-13.69242 112.557375 25.776876-2.461419 2.325361-101.6356-14.409817-8.460356z" fill="#AEDAFD"></path>
    <path d="M268.931729 758.624342l-25.776876 2.461419 28.263034 24.960526 16.178576-11.46601-18.664734-15.955935z" fill="#89CEF4"></path>
    <path d="M445.040731 558.581437l-4.947577-8.571677a14.842731 14.842731 0 0 0-20.285066-5.429966L180.827753 682.567715c-9.276707 2.201672-16.784655 3.6241-19.345026 2.597478-11.231-4.477557-60.92941-45.047688-60.92941-45.047688s10.538339 60.92941 7.940861 71.269846c-2.473788 9.895154-38.974537 58.134029-38.974537 58.134029s56.798183-6.43185 69.612407-5.293907c8.06455 0.70503 56.105523 42.351259 56.105523 42.351258s-10.216746-65.988307-7.421366-75.722665c0.791612-2.696429 4.700198-7.13688 9.895154-12.368942L439.598396 578.866502a14.842731 14.842731 0 0 0 5.442335-20.285065z" fill="#B6DFFC"></path>
    <path d="M436.803015 449.474996l-82.525583-106.917137 13.519254-40.718559 23.426776 2.857226 58.876166 121.7475-13.296613 23.03097z" fill="#AEDAFD"></path>
    <path d="M436.803015 449.474996l-82.525583-106.917137 27.70643-11.503117 64.306132 101.994299-9.486979 16.425955z" fill="#7CC0F2"></path>
    <path d="M381.983862 331.054742l-27.70643 11.503117 13.519254-40.718559 23.426776 2.857226-9.2396 26.358216z" fill="#89CEF4"></path>
    <path d="M252.233657 380.988163l-13.692419-112.569745 28.263033-24.960526 16.178577 11.478379-10.550708 114.190076-20.198483 11.861816z" fill="#AEDAFD"></path>
    <path d="M252.233657 380.988163l-13.692419-112.569745 25.776876 2.473789 2.325361 101.635599-14.409818 8.460357z" fill="#7CC0F2"></path>
    <path d="M264.318114 270.892207l-25.776876-2.473789 28.263033-24.960526 16.178577 11.478379-18.664734 15.955936z" fill="#89CEF4"></path>
    <path d="M266.00029 357.140842l-104.31966 44.416872-7.495579 36.958399 18.033918 8.274823 93.608156-66.235686 0.173165-23.414408z" fill="#7CC0F2"></path>
    <path d="M266.00029 357.140842l-104.31966 44.416872 15.028265 21.089046 89.167705-48.807846 0.123689-16.698072z" fill="#AEDAFD"></path>
    <path d="M176.708895 422.64676l-15.028265-21.089046-7.495579 36.958399 18.033918 8.274823 4.489926-24.144176z" fill="#89CEF4"></path>
    <path d="M119.923126 308.649686m7.421365-12.854182l4.947577-8.569454q7.421365-12.854182 20.275548-5.432817l284.934366 164.506933q12.854182 7.421365 5.432817 20.275548l-4.947577 8.569455q-7.421365 12.854182-20.275547 5.432816l-284.934367-164.506933q-12.854182-7.421365-5.432817-20.275548Z" fill="#B6DFFC"></path>
    <path d="M195.12625 217.582065s-10.278591 63.328985-8.546939 75.289752c1.236894 8.757211 49.834469 49.042856 45.072426 57.292941-5.813403 10.05595-60.991255-14.137701-71.45538-11.589699-9.895154 2.399575-61.844712 44.243707-61.844712 44.243707s12.034981-62.426052 8.65826-69.773204c-5.429966-11.663913-39.395081-57.639271-39.395082-57.639271s59.98937 7.421365 69.847418 4.67546c10.229115-2.906701 57.664009-42.499686 57.664009-42.499686z" fill="#B6DFFC"></path>
    <path d="M511.301155 513.236894m-111.320481 0a111.320481 111.320481 0 1 0 222.640962 0 111.320481 111.320481 0 1 0-222.640962 0Z" fill="#C5E9FF"></path>
  </g>
</svg>
